<?xml version="1.0" encoding="utf-8"?>
<svg width="50px" height="50px" viewBox="0 0 50 50" version="1.1" xmlns:xlink="http://www.w3.org/1999/xlink" xmlns="http://www.w3.org/2000/svg">
  <desc>Created with Lunacy</desc>
  <g id="icons8_music">
    <path d="M0 0L50 0L50 50L0 50L0 0Z" id="Background" fill="none" stroke="none" />
    <path d="M1 0C0.447715 0 0 0.447716 0 1C0 1.55229 0.447715 2 1 2C1.55228 2 2 1.55229 2 1C2 0.447715 1.55228 0 1 0L1 0Z" transform="translate(5.5 13.5)" id="Shape" fill="#78A0CF" stroke="none" />
    <path d="M0.5 0C0.223858 0 0 0.223858 0 0.5C0 0.776143 0.223858 1 0.5 1C0.776142 1 1 0.776143 1 0.5C1 0.223857 0.776142 0 0.5 0L0.5 0Z" transform="translate(38 6)" id="Shape" fill="#F1BC19" stroke="none" />
    <path d="M18.5 0C8.28273 0 0 8.28273 0 18.5C1.90735e-06 28.7173 8.28273 37 18.5 37C28.7173 37 37 28.7173 37 18.5C37 8.28273 28.7173 0 18.5 0L18.5 0Z" transform="translate(6.5 6.5)" id="Shape" fill="#CEE1F4" stroke="none" />
    <path d="M2 0C0.895432 0 0 0.895431 0 2C0 3.10457 0.895432 4 2 4C3.10457 4 4 3.10457 4 2C4 0.895431 3.10457 0 2 0L2 0Z" transform="translate(39.5 5.5)" id="Shape" fill="#F1BC19" stroke="none" />
    <path d="M1 0C0.447716 0 0 0.447716 0 1C0 1.55229 0.447716 2 1 2C1.55228 2 2 1.55229 2 1C2 0.447715 1.55228 0 1 0L1 0Z" transform="translate(42.5 11)" id="Shape" fill="#78A0CF" stroke="none" />
    <path d="M0 2C0 0.895432 0.895431 0 2 0C3.10457 0 4 0.89543 4 2C4 3.10457 3.10457 4 2 4C0.895431 4 0 3.10457 0 2ZM34 8.5C34 7.94772 34.4477 7.5 35 7.5C35.5523 7.5 36 7.94772 36 8.5C36 9.05228 35.5523 9.5 35 9.5C34.4477 9.5 34 9.05228 34 8.5Z" transform="translate(5.5 29.5)" id="Shape" fill="#FBCD59" fill-rule="evenodd" stroke="none" />
    <path d="M1 0C0.447715 0 0 0.447716 0 1C0 1.55228 0.447715 2 1 2C1.55228 2 2 1.55228 2 1C2 0.447716 1.55228 0 1 0L1 0Z" transform="translate(11.5 42.5)" id="Shape" fill="#78A0CF" stroke="none" />
    <path d="M1.25 0C0.559644 0 0 0.559645 0 1.25C0 1.94036 0.559644 2.5 1.25 2.5C1.94036 2.5 2.5 1.94036 2.5 1.25C2.5 0.559645 1.94036 0 1.25 0L1.25 0Z" transform="translate(8 25.5)" id="Shape" fill="#EEEEEE" stroke="none" />
    <path d="M0.5 0C0.223858 0 0 0.223858 0 0.5C0 0.776142 0.223858 1 0.5 1C0.776142 1 1 0.776142 1 0.5C1 0.223858 0.776142 0 0.5 0L0.5 0Z" transform="translate(10 33)" id="Shape" fill="#F1BC19" stroke="none" />
    <path d="M0.5 0C0.223858 0 0 0.223858 0 0.5C0 0.776142 0.223858 1 0.5 1C0.776142 1 1 0.776142 1 0.5C1 0.223858 0.776142 0 0.5 0L0.5 0Z" transform="translate(39.5 16.5)" id="Shape" fill="#EEEEEE" stroke="none" />
    <g id="Group" transform="translate(12.51294 12.49451)">
      <path d="M20.5125 2.941L9.76295 5.6385L9.76295 18.6665L9.76295 19.4465C9.76445 20.6505 8.31945 22.1855 5.90395 23.117C3.18595 24.1645 0.579453 24.012 0.0824537 22.7765C-0.414546 21.5405 1.38645 19.69 4.10445 18.642C5.35595 18.1595 6.46196 18.015 7.47095 18.0295L7.47045 17.6835L7.47045 3.8795L22.777 0L22.777 14.8395L22.777 15.6195C22.7785 16.8235 21.088 18.389 18.6725 19.32C15.9545 20.3675 13.348 20.215 12.851 18.9795C12.354 17.7435 14.155 15.893 16.873 14.845C18.1245 14.3625 19.503 14.0555 20.512 14.0705L20.5115 13.7245L20.5115 2.941L20.5125 2.941Z" transform="translate(0.3491488 0.3509903)" id="Shape" fill="#EA5167" stroke="none" />
      <path d="M0.107102 23.2575C0.438601 24.0825 1.4896 24.5105 2.8821 24.5105C3.9121 24.5105 5.1286 24.276 6.3791 23.794C8.8236 22.8515 10.4646 21.245 10.4621 19.797L10.4621 6.26249L20.5111 3.74049L20.5111 14.079C19.5281 14.1265 18.2831 14.413 17.0966 14.87C15.0616 15.6545 13.4721 16.889 12.9491 18.0915C12.7371 18.579 12.7116 19.0535 12.8761 19.4615C13.4526 20.8955 16.2076 21.131 19.1476 19.9975C21.6981 19.0145 23.4781 17.358 23.4761 15.9705L23.4761 0.350989C23.4761 0.24299 23.4261 0.140989 23.3406 0.0744896C23.2551 0.00749016 23.1426 -0.01651 23.0396 0.0114899L7.7336 3.89099C7.5786 3.93049 7.4696 4.07049 7.4696 4.23049L7.4696 18.032C6.3996 18.057 5.3676 18.2655 4.3276 18.6665C2.2926 19.451 0.703102 20.6855 0.180102 21.8875C-0.0318975 22.375 -0.0573978 22.8495 0.107102 23.2575ZM4.5796 19.3195C5.6081 18.923 6.6261 18.7295 7.6876 18.7295C7.7301 18.7295 7.7726 18.7295 7.8151 18.7305C7.9066 18.737 7.9991 18.6955 8.0661 18.6295C8.1326 18.5635 8.1701 18.474 8.1701 18.38L8.16961 4.50299L22.7756 0.800989L22.7756 15.971C22.7771 16.881 21.4176 18.3725 18.8951 19.344C16.1836 20.39 13.8896 20.1065 13.5251 19.2005C13.4311 18.966 13.4536 18.687 13.5911 18.3705C14.0351 17.349 15.5101 16.2315 17.3486 15.523C18.6036 15.039 19.8991 14.7615 20.8571 14.772C20.9636 14.7885 21.0411 14.7375 21.1081 14.671C21.1746 14.605 21.2121 14.5155 21.2121 14.4215L21.2116 3.29149C21.2116 3.18349 21.1616 3.08199 21.0766 3.01549C20.9916 2.94949 20.8801 2.92449 20.7761 2.95199L10.0266 5.64999C9.8711 5.68899 9.7616 5.82899 9.7616 5.98949L9.7616 19.797C9.7626 20.7615 8.5146 22.2195 6.1266 23.1405C3.4161 24.1865 1.1206 23.903 0.756103 22.9965C0.662103 22.762 0.684603 22.483 0.822103 22.1665C1.2661 21.1455 2.7406 20.028 4.5796 19.3195Z" id="Shape" fill="#472B29" fill-rule="evenodd" stroke="none" />
      <path d="M0 2.042L8.4415 0" transform="translate(10.1956 6.046989)" id="Shape" fill="#1F212B" stroke="none" />
      <path d="M7.72097 2.35023C7.74847 2.46523 7.85097 2.54173 7.96397 2.54173C7.98298 2.54173 8.00297 2.53923 8.02297 2.53473L16.4645 0.492733C16.5985 0.459732 16.6815 0.324232 16.649 0.190733C16.6165 0.0572338 16.4825 -0.0237675 16.347 0.00623322L7.90547 2.04823C7.77147 2.08123 7.68897 2.21623 7.72097 2.35023ZM15.145 13.0977C15.088 13.0977 15.0365 13.0587 15.0235 13.0012C15.008 12.9337 15.05 12.8662 15.117 12.8512C16.769 12.4697 18.1355 11.6447 18.7065 11.0387C18.754 10.9882 18.8325 10.9862 18.8835 11.0337C18.9335 11.0812 18.9355 11.1602 18.8885 11.2107C18.293 11.8427 16.8765 12.7017 15.174 13.0947C15.1635 13.0967 15.1545 13.0977 15.145 13.0977ZM12.51 13.408C12.7965 13.4694 13.0915 13.4998 13.3915 13.4998C13.4725 13.4998 13.553 13.4973 13.6335 13.494C13.702 13.4899 13.7565 13.3957 13.754 13.2817C13.7515 13.1694 13.6825 13.0833 13.6245 13.0842C13.256 13.1071 12.891 13.0768 12.542 13.0014C12.4735 12.9874 12.4105 13.0669 12.402 13.1784C12.3935 13.2899 12.4415 13.3924 12.51 13.408ZM2.52597 14.3982C2.54547 14.4467 2.59197 14.4767 2.64197 14.4767C2.65797 14.4767 2.67347 14.4737 2.68847 14.4677C3.33497 14.2102 3.99147 14.0397 4.81547 13.9152C4.88397 13.9052 4.93097 13.8417 4.92047 13.7732C4.91047 13.7052 4.85147 13.6547 4.77847 13.6682C3.93447 13.7957 3.26147 13.9707 2.59597 14.2357C2.53197 14.2612 2.50047 14.3337 2.52597 14.3982ZM0.567974 17.2202C0.397974 17.2202 0.243974 17.2107 0.108974 17.1932C0.0404749 17.1842 -0.00752544 17.1212 0.000974655 17.0532C0.00947475 16.9852 0.0724745 16.9367 0.140975 16.9452C0.968975 17.0522 2.54748 16.8277 4.06747 16.0777C4.12897 16.0477 4.20397 16.0722 4.23497 16.1347C4.26547 16.1967 4.23997 16.2712 4.17797 16.3022C2.85647 16.9537 1.48247 17.2202 0.567974 17.2202Z" transform="translate(2.231627 5.797256)" id="Shape" fill="#472B29" fill-rule="evenodd" stroke="none" />
      <g id="Group" transform="translate(3.091063 20.4506)">
        <path d="M0.125038 0.67989C0.0835381 0.67989 0.0430384 0.659389 0.0190382 0.621391C-0.0174618 0.562893 3.8147e-05 0.485889 0.0585384 0.448891C0.314538 0.288391 0.567038 0.142391 0.808039 0.014389C0.86904 -0.0171127 0.944538 0.00439072 0.977039 0.0663872C1.00904 0.127388 0.98654 0.202888 0.925039 0.235386C0.689039 0.360386 0.442039 0.503387 0.191039 0.661385C0.171038 0.673389 0.148038 0.67989 0.125038 0.67989L0.125038 0.67989Z" id="Shape" fill="#472B29" stroke="none" />
      </g>
      <g id="Group" transform="translate(7.237067 20.32338)">
        <path d="M0.125034 1.18211C0.0835342 1.18211 0.0425339 1.16111 0.0185337 1.12312C-0.0174656 1.06462 0.000534058 0.987614 0.0590343 0.950615C0.576035 0.630116 1.02503 0.172115 1.15053 0.0391159C1.19803 -0.0108833 1.27653 -0.0133858 1.32753 0.0341148C1.37753 0.0816155 1.37953 0.160614 1.33253 0.211113C1.20203 0.349113 0.734533 0.827114 0.191532 1.16361C0.170534 1.17611 0.147533 1.18211 0.125034 1.18211L0.125034 1.18211Z" id="Shape" fill="#472B29" stroke="none" />
      </g>
    </g>
  </g>
</svg>