<?xml version="1.0" encoding="utf-8"?>
<svg width="142px" height="142px" viewBox="0 0 142 142" version="1.1" xmlns:xlink="http://www.w3.org/1999/xlink" xmlns="http://www.w3.org/2000/svg">
  <desc>Created with Lunacy</desc>
  <defs>
    <linearGradient x1="0.5" y1="0.5" x2="0.4894375" y2="0.9577482" id="gradient_1">
      <stop offset="0" stop-color="#FC4850" stop-opacity="0.78039217" />
      <stop offset="1" stop-color="#FF7B36" stop-opacity="0.78039217" />
    </linearGradient>
    <filter filterUnits="userSpaceOnUse" color-interpolation-filters="sRGB" id="filter_1">
      <feFlood flood-opacity="0" result="BackgroundImageFix" />
      <feColorMatrix in="SourceAlpha" type="matrix" values="0 0 0 0 0 0 0 0 0 0 0 0 0 0 0 0 0 0 127 0" />
      <feOffset dx="4" dy="14" />
      <feGaussianBlur stdDeviation="7.5" />
      <feColorMatrix type="matrix" values="0 0 0 0 0 0 0 0 0 0 0 0 0 0 0 0 0 0 0.4980392 0" />
      <feBlend mode="normal" in2="BackgroundImageFix" result="effect0_dropShadow" />
      <feBlend mode="normal" in="SourceGraphic" in2="effect0_dropShadow" result="shape" />
    </filter>
  </defs>
  <g id="Group-2">
    <g filter="url(#filter_1)">
      <path d="M0 71C0 31.7878 31.7878 0 71 0C110.212 0 142 31.7878 142 71C142 110.212 110.212 142 71 142C31.7878 142 0 110.212 0 71Z" id="Ellipse" fill="url(#gradient_1)" fill-opacity="0.96" stroke="none" />
    </g>
    <g fill="#FFFFFF" stroke="none" id="Start" transform="translate(16 51)">
      <path d="M31.938 9.63Q30.534 8.874 28.95 8.406Q27.366 7.938 25.962 7.938Q23.838 7.938 22.596 8.892Q21.354 9.846 21.354 11.502Q21.354 13.122 22.812 14.148Q24.27 15.174 26.97 16.182Q28.986 16.902 30.372 17.748Q31.758 18.594 32.676 20.088Q33.594 21.582 33.594 23.886Q33.594 25.974 32.55 27.666Q31.506 29.358 29.58 30.33Q27.654 31.302 25.062 31.302Q22.65 31.302 20.418 30.528Q18.186 29.754 16.494 28.566L18.042 25.794Q19.374 26.802 21.246 27.504Q23.118 28.206 24.738 28.206Q26.826 28.206 28.392 27.126Q29.958 26.046 29.958 23.922Q29.958 22.122 28.644 21.06Q27.33 19.998 24.954 19.062Q22.758 18.234 21.3 17.442Q19.842 16.65 18.798 15.264Q17.754 13.878 17.754 11.79Q17.754 8.73 19.896 6.84Q22.038 4.95 25.458 4.842Q29.67 4.842 33.27 6.93L31.938 9.63ZM43.422 9.558L43.422 16.146L47.49 16.146L47.49 18.81L43.422 18.81L43.422 31.014L40.038 31.014L40.038 18.81L37.302 18.81L37.302 16.146L40.038 16.146L40.038 9.558L43.422 9.558ZM91.05 16.146L91.05 9.558L87.666 9.558L87.666 16.146L84.93 16.146L84.93 18.81L87.666 18.81L87.666 31.014L91.05 31.014L91.05 18.81L95.118 18.81L95.118 16.146L91.05 16.146ZM63.51 31.014L66.858 31.014L66.858 16.11L63.762 16.11L63.51 18.486Q62.646 17.154 61.242 16.326Q59.838 15.498 57.93 15.498Q55.806 15.498 54.06 16.488Q52.314 17.478 51.288 19.296Q50.262 21.114 50.262 23.562Q50.262 26.01 51.252 27.774Q52.242 29.538 53.952 30.456Q55.662 31.374 57.786 31.374Q59.694 31.374 61.206 30.492Q62.718 29.61 63.51 28.566L63.51 31.014ZM77.568 17.478Q78.63 16.542 79.818 16.038Q81.006 15.534 81.906 15.498L81.762 18.846Q80.142 18.774 78.828 19.494Q77.514 20.214 76.776 21.492Q76.038 22.77 76.038 24.21L76.038 31.014L72.69 31.014L72.69 16.11L75.678 16.11L75.93 19.638Q76.506 18.414 77.568 17.478ZM61.836 27.576Q60.522 28.602 58.686 28.602Q57.318 28.602 56.166 27.9Q55.014 27.198 54.33 26.01Q53.646 24.822 53.646 23.382Q53.646 21.906 54.312 20.736Q54.978 19.566 56.112 18.918Q57.246 18.27 58.578 18.27Q60.342 18.27 61.71 19.26Q63.078 20.25 63.51 21.834L63.51 24.786Q63.15 26.55 61.836 27.576Z" />
    </g>
  </g>
</svg>