<?xml version="1.0" encoding="utf-8"?>
<svg width="296px" height="120px" viewBox="0 0 296 120" version="1.1" xmlns:xlink="http://www.w3.org/1999/xlink" xmlns="http://www.w3.org/2000/svg">
  <desc>Created with Lunacy</desc>
  <g id="Titlu">
    <g id="Cuvantul" fill="#FFFFFF">
      <path d="M42.0036 44.7144Q43.5036 46.7754 44.5348 49.3052Q45.9411 51.6936 48.0973 51.8342Q50.2067 51.8342 51.3317 49.9644Q51.8473 49.0767 51.8473 48.0952Q51.8473 47.2537 51.4723 46.3652Q48.0973 37.0642 41.3473 33.6987Q38.1598 32.1563 34.6442 32.1563Q26.4411 32.1563 19.0817 40.4063Q12.0504 48.375 8.67543 60.4688Q6.51918 68.1563 6.51918 75.6563Q6.51918 88.2656 11.7692 96.6563Q16.5036 104.203 23.7223 105.234Q24.7536 105.375 25.7848 105.375Q33.8473 105.375 40.8786 97.9907Q45.0973 93.5222 48.0973 87.126Q48.5661 86.0911 48.5661 85.2913Q48.5661 83.0808 46.6911 81.999Q45.8004 81.5288 44.8161 81.5288Q42.7535 81.5288 41.6754 83.3555Q41.4879 83.6367 41.3942 83.9172Q37.6911 91.3176 32.5348 95.2053Q29.2536 97.6406 26.5817 97.6406Q20.8161 97.6406 17.4879 90.8027Q14.4879 84.6196 14.4879 75.3464Q14.4879 65.6975 18.6598 55.675Q22.6442 45.9324 28.1754 41.9985Q31.0817 39.8906 33.9411 39.8906Q38.3473 39.8906 42.0036 44.7144ZM212.788 53.4375L212.319 53.4375Q209.647 53.4375 208.804 55.4194Q208.522 56.127 208.522 56.9766Q208.522 60.0916 211.757 60.375L216.538 60.375Q212.835 90.0938 212.835 91.4531Q212.835 93.0792 213.042 94.5596Q211.819 94.9922 210.178 96.1824Q207.553 98.1475 206.147 98.4353Q205.631 98.5313 205.209 98.5313Q202.819 98.5313 201.506 94.9504Q201.365 94.5264 201.225 94.1499Q200.662 92.4536 200.662 82.8428Q200.662 80.0156 200.709 75.2344Q200.756 73.125 200.756 72.5625Q200.756 69.0938 197.897 66.9844Q195.975 65.625 193.678 65.625Q187.256 65.625 183.787 71.7656Q183.647 71.9531 183.553 72.1406Q183.553 71.6719 183.6 70.8281Q183.694 69.5625 183.694 69.0469Q183.694 65.4844 181.537 64.9688Q181.022 64.875 180.506 64.875Q177.694 64.875 176.85 68.9063Q176.709 69.6094 176.615 70.4063L173.391 94.8105Q172.986 94.6406 172.599 94.6406Q171.052 94.6406 168.474 96.5156Q165.849 98.3906 164.443 98.6719Q163.974 98.7656 163.552 98.7656Q161.396 98.7656 160.084 95.9531Q159.193 94.0781 159.193 91.9219Q159.193 88.6875 160.646 75.375Q161.115 70.875 161.115 69.5156Q161.115 66.1875 159.099 65.5313Q158.865 65.3906 157.927 65.3906Q156.287 65.4375 155.349 66.5625Q153.099 65.3906 150.099 65.3906Q143.115 65.3906 138.146 72.9844Q137.528 73.9295 136.981 74.9166Q136.938 74.915 136.895 74.915Q135.677 74.915 133.895 76.0203Q132.677 76.7571 131.88 77.1255Q131.974 75.0132 131.974 74.7312Q131.974 70.5066 128.649 68.0186Q126.13 66.1875 122.757 66.1875Q119.289 66.1875 116.723 68.7678Q114.442 71.0662 114.442 74.1628Q114.442 80.543 119.786 83.1702Q121.52 84.0146 123.536 84.3428Q120.763 91.2495 116.581 95.1021Q113.385 98.1094 110.096 98.1094Q104.974 98.0156 104.974 88.6655Q104.974 83.8733 106.728 73.2114Q107.224 70.177 107.224 69.4182Q107.131 65.7195 103.864 65.6719Q101.01 65.7656 99.6759 71.4375Q99.6298 71.5781 99.6298 71.6719Q97.9423 79.125 97.9423 86.7188Q97.9423 91.1768 98.6896 94.6354Q97.7096 95.1054 96.5042 95.9883Q93.8792 97.7578 92.5198 98.0676Q92.0042 98.1563 91.5354 98.1563Q88.1136 98.1563 87.3636 92.1848Q87.2229 90.9624 87.2229 89.74Q87.2229 86.4973 88.1465 74.6742Q88.1526 74.8032 88.1604 74.9473Q88.3479 72.3501 88.3479 71.0508Q88.3479 65.9861 85.8167 65.5964Q85.6292 65.5313 85.4886 65.5313Q82.4417 65.6257 81.8792 68.6008Q81.8323 68.9312 81.7854 69.2813Q81.2229 77.1563 80.8479 80.0156Q78.3636 97.4993 71.9417 97.5469Q66.9729 97.4524 66.9729 87.6306Q66.9729 82.9087 68.6136 72.3311Q69.0354 69.7346 69.0354 68.9788Q68.9417 65.3438 65.6136 65.2969Q62.9417 65.2969 61.4886 70.4531Q61.3948 70.875 61.3011 71.25Q59.6604 78.8438 59.6604 86.3438Q59.6604 101.906 67.8636 104.391Q69.3636 104.813 71.0511 104.813Q78.2229 104.766 82.3479 99.7749Q84.8323 104.954 90.6448 105Q94.9573 105 99.3167 102.103Q100.326 101.438 101.075 100.785Q101.434 101.35 101.833 101.859Q104.692 105.328 109.192 105.375Q118.192 105.375 124.802 95.8652Q128.458 90.6189 130.38 83.967Q132.3 83.5764 133.839 83.0689Q133.349 85.1088 133.084 87.2813Q132.896 89.0625 132.896 90.6563Q132.896 100.594 137.63 104.063Q139.834 105.609 142.834 105.609Q147.615 105.609 152.255 101.25Q153.099 100.453 153.755 99.6563Q156.568 105.563 162.474 105.609Q167.255 105.609 171.521 102.609Q172.166 102.134 172.699 101.665Q173.018 104.072 174.834 104.91Q175.397 105.141 175.959 105.141Q177.975 105.141 179.334 102.923Q180.131 101.537 180.272 99.8723L180.365 98.5313Q181.397 92.885 185.053 84.3684Q189.225 74.6763 191.897 73.6875Q192.178 73.5938 192.365 73.5938Q193.49 73.7344 193.49 78.75Q193.49 80.2969 193.397 82.5938Q193.35 84.7969 193.35 85.7813Q193.35 99.4219 198.365 103.453Q200.803 105.375 204.319 105.375Q208.678 105.375 212.99 102.469Q214.247 101.518 215.105 100.623Q215.445 101.189 215.835 101.719Q218.788 105.563 223.429 105.609Q228.163 105.609 232.382 102.563Q233.476 101.734 234.239 100.924Q236.127 103.499 239.07 104.391Q240.57 104.813 242.257 104.813Q249.429 104.766 253.554 99.7749Q256.039 104.954 261.851 105Q266.164 105 270.523 102.103Q274.085 99.7573 274.414 97.5491Q274.46 97.3198 274.46 97.1814Q274.46 97.0816 274.456 96.9847Q279.687 105.013 288.414 105.375Q293.336 105.375 297.555 102.327Q300.93 99.7478 301.024 97.3096Q301.024 95.7158 299.664 94.7776Q299.055 94.3557 298.399 94.3557Q296.899 94.3557 294.227 96.1853Q291.461 98.1563 289.914 98.4375Q289.399 98.5313 288.93 98.5313Q281.899 98.5313 278.336 90.2747Q276.414 85.8179 274.82 76.9043Q280.633 72.2183 285.93 64.6736Q294.274 52.8186 294.274 43.1184Q294.274 34.2151 286.164 33.7031Q285.649 33.6563 285.18 33.6563Q276.274 33.6563 271.399 46.9688Q268.399 55.2188 267.742 65.1094Q267.649 66.2813 267.649 67.0313Q267.649 81.5625 271.68 91.5938Q272.299 93.1099 272.994 94.4593Q272.438 94.1001 271.835 94.1001Q270.289 94.1001 267.71 95.9883Q265.085 97.7578 263.726 98.0676Q263.21 98.1563 262.742 98.1563Q259.32 98.1563 258.57 92.1848Q258.429 90.9624 258.429 89.74Q258.429 86.4975 259.353 74.6743Q259.359 74.8048 259.367 74.9473Q259.554 72.3501 259.554 71.0508Q259.554 65.9861 257.023 65.5964Q256.835 65.5313 256.695 65.5313Q253.648 65.6257 253.085 68.6008Q253.039 68.9312 252.992 69.2813Q252.429 77.1563 252.054 80.0156Q249.57 97.4993 243.148 97.5469Q238.179 97.4524 238.179 87.6306Q238.179 82.9087 239.82 72.3311Q240.242 69.7346 240.242 68.9788Q240.148 65.3438 236.82 65.2969Q234.148 65.2969 232.695 70.4531Q232.601 70.875 232.507 71.25Q230.867 78.8438 230.867 86.3438Q230.867 91.2976 231.698 94.9263Q230.583 95.3632 229.194 96.4688Q226.85 98.2969 225.585 98.625Q225.022 98.7656 224.507 98.7656Q222.35 98.7656 221.038 95.9531Q220.147 94.0781 220.147 91.9219Q220.147 88.5 223.783 60.375L229.616 60.375Q232.054 60.375 233.132 58.5813Q233.554 57.8262 233.554 56.9766Q233.554 55.0415 231.913 54.0505Q230.975 53.5313 229.71 53.5313L224.788 53.5313Q226.991 38.8469 226.991 37.7249Q226.991 34.1704 224.743 33.6563Q224.205 33.5625 223.667 33.5625Q220.979 33.5625 220.098 36.6584Q219.805 37.6436 219.61 39.0974L217.526 53.5313Q215.413 53.5313 212.788 53.4375ZM280.352 43.0803Q282.461 40.7344 285.227 40.6875Q286.961 40.6875 287.711 42.7515Q287.899 43.2678 287.899 43.6428Q287.899 50.9619 280.117 61.6106Q277.305 65.5049 274.492 68.3665Q275.008 49.1316 280.352 43.0803ZM153.849 72.0469L153.521 75.2344Q153.052 80.625 151.177 88.6406Q150.146 92.9531 149.537 93.8438Q148.552 95.2031 146.396 96.75Q144.287 98.2969 142.834 98.3438Q140.068 98.3438 139.927 92.625L139.927 92.1563Q139.927 85.9688 142.599 79.8281Q145.599 72.9844 149.959 71.7656Q150.849 71.5313 151.693 71.5313Q152.818 71.5313 153.849 72.0469ZM123.302 72.7969Q122.833 72.7969 122.317 72.9814Q120.817 73.5337 120.817 75.0073Q120.864 77.6323 125.27 78.0469Q125.505 76.9878 125.505 75.8364Q125.505 75.5603 125.458 75.2373Q125.177 72.7969 123.302 72.7969Z" />
    </g>
    <g id="Cant" fill="#00C6FB" transform="translate(70.51951 12.13332)">
      <path d="M27.6916 22.3572Q28.4416 23.3877 28.9572 24.6526Q29.6603 25.8468 30.7385 25.9171Q31.7931 25.9171 32.3556 24.9822Q32.6135 24.5383 32.6135 24.0476Q32.6135 23.6268 32.426 23.1826Q30.7385 18.5321 27.3635 16.8494Q25.7697 16.0781 24.0119 16.0781Q19.9103 16.0781 16.2306 20.2031Q12.715 24.1875 11.0275 30.2344Q9.9494 34.0781 9.9494 37.8281Q9.9494 44.1328 12.5744 48.3281Q14.9416 52.1016 18.551 52.6172Q19.0666 52.6875 19.5822 52.6875Q23.6135 52.6875 27.1291 48.9954Q29.2385 46.7611 30.7385 43.563Q30.9728 43.0455 30.9728 42.6456Q30.9728 41.5404 30.0353 40.9995Q29.59 40.7644 29.0978 40.7644Q28.0666 40.7644 27.5275 41.6777Q27.4338 41.8184 27.3869 41.9586Q25.5353 45.6588 22.9572 47.6027Q21.3166 48.8203 19.9806 48.8203Q17.0978 48.8203 15.4338 45.4014Q13.9338 42.3098 13.9338 37.6732Q13.9338 32.8488 16.0197 27.8375Q18.0119 22.9662 20.7775 20.9993Q22.2306 19.9453 23.6603 19.9453Q25.8635 19.9453 27.6916 22.3572ZM75.7619 26.7188L75.5275 26.7188Q74.1916 26.7188 73.7697 27.7097Q73.6291 28.0635 73.6291 28.4883Q73.6291 30.0458 75.2463 30.1875L77.6369 30.1875Q75.7853 45.0469 75.7853 45.7266Q75.7853 46.5759 75.8984 47.3458Q75.3456 47.5772 74.6369 48.0912Q73.3244 49.0737 72.6213 49.2177Q72.3635 49.2656 72.1525 49.2656Q70.9572 49.2656 70.301 47.4752Q70.2307 47.2632 70.1603 47.075Q69.8791 46.2268 69.8791 41.4214Q69.8791 40.0078 69.9025 37.6172Q69.926 36.5625 69.926 36.2813Q69.926 34.5469 68.4963 33.4922Q67.5353 32.8125 66.3869 32.8125Q63.176 32.8125 61.4416 35.8828Q61.3713 35.9766 61.3244 36.0703Q61.3244 35.8359 61.3478 35.4141Q61.3947 34.7813 61.3947 34.5234Q61.3947 32.7422 60.3166 32.4844Q60.0588 32.4375 59.801 32.4375Q58.3947 32.4375 57.9728 34.4531Q57.9025 34.8047 57.8556 35.2031L56.2512 47.348Q56.1378 47.3203 56.0275 47.3203Q55.2541 47.3203 53.965 48.2578Q52.6525 49.1953 51.9494 49.3359Q51.715 49.3828 51.5041 49.3828Q50.426 49.3828 49.7697 47.9766Q49.3244 47.0391 49.3244 45.9609Q49.3244 44.3438 50.051 37.6875Q50.2853 35.4375 50.2853 34.7578Q50.2853 33.0938 49.2775 32.7656Q49.1603 32.6953 48.6916 32.6953Q47.8713 32.7188 47.4025 33.2813Q46.2775 32.6953 44.7775 32.6953Q41.2853 32.6953 38.801 36.4922Q36.7619 39.6094 36.2697 43.6406Q36.176 44.5313 36.176 45.3281Q36.176 50.2969 38.5431 52.0313Q39.6447 52.8047 41.1447 52.8047Q43.5353 52.8047 45.8556 50.625Q46.2775 50.2266 46.6056 49.8281Q48.0119 52.7813 50.965 52.8047Q53.3556 52.8047 55.4885 51.3047Q55.7176 51.1359 55.9184 50.9686Q56.1095 52.0602 56.965 52.455Q57.2463 52.5703 57.5275 52.5703Q58.5353 52.5703 59.215 51.4614Q59.6135 50.7686 59.6838 49.9362L59.7306 49.2656Q60.2463 46.4425 62.0744 42.1842Q64.1603 37.3381 65.4963 36.8438Q65.6369 36.7969 65.7307 36.7969Q66.2931 36.8672 66.2932 39.375Q66.2931 40.1484 66.2463 41.2969Q66.2228 42.3984 66.2228 42.8906Q66.2228 49.7109 68.7307 51.7266Q69.9494 52.6875 71.7072 52.6875Q73.8869 52.6875 76.0432 51.2344Q76.5927 50.8187 76.9898 50.4242Q77.1295 50.6475 77.2853 50.8594Q78.7619 52.7813 81.0822 52.8047Q83.4494 52.8047 85.5588 51.2813Q87.2932 49.9688 87.3635 48.75Q87.3635 47.8828 86.5197 47.4609Q86.215 47.3203 85.8869 47.3203Q85.1135 47.3203 83.965 48.2344Q82.7932 49.1484 82.1603 49.3125Q81.8791 49.3828 81.6213 49.3828Q80.5432 49.3828 79.8869 47.9766Q79.4416 47.0391 79.4416 45.9609Q79.4416 44.25 81.2595 30.1875L84.176 30.1875Q85.3947 30.1875 85.9338 29.2906Q86.1447 28.9131 86.1447 28.4883Q86.1447 27.5208 85.3244 27.0253Q84.8557 26.7656 84.2228 26.7656L81.7619 26.7656Q82.8635 19.4235 82.8635 18.8624Q82.8635 17.0852 81.7392 16.8281Q81.4704 16.7813 81.2016 16.7813Q79.8572 16.7813 79.4171 18.3292Q79.2706 18.8218 79.1728 19.5487L78.1309 26.7656Q77.0744 26.7656 75.7619 26.7188ZM46.6525 36.0234L46.4885 37.6172Q46.2541 40.3125 45.3166 44.3203Q44.801 46.4766 44.4963 46.9219Q44.0041 47.6016 42.926 48.375Q41.8713 49.1484 41.1447 49.1719Q39.7619 49.1719 39.6916 46.3125L39.6916 46.0781Q39.6916 42.9844 41.0275 39.9141Q42.5275 36.4922 44.7072 35.8828Q45.1525 35.7656 45.5744 35.7656Q46.1369 35.7656 46.6525 36.0234Z" />
    </g>
  </g>
</svg>